<svg xmlns="http://www.w3.org/2000/svg" version="1.1" xmlns:xlink="http://www.w3.org/1999/xlink" xmlns:svgjs="http://svgjs.dev/svgjs" preserveAspectRatio="xMidYMid slice" class="svg-stripes" viewBox="0 0 500 500"><g fill="#7ee3c5" transform="matrix(0.7071067811865476,0.7071067811865476,-0.7071067811865476,0.7071067811865476,0,0)"><rect width="39.78371006591931" height="1414.213562373095" x="0" y="793.5198364257812"></rect><rect width="39.78371006591931" height="1414.213562373095" x="78.56742095947266" y="884.7577514648438"></rect><rect width="39.78371006591931" height="1414.213562373095" x="157.1348419189453" y="684.22216796875"></rect><rect width="39.78371006591931" height="1414.213562373095" x="235.70225524902344" y="409.5549621582031"></rect><rect width="39.78371006591931" height="1414.213562373095" x="314.2696838378906" y="538.9755859375"></rect><rect width="39.78371006591931" height="1414.213562373095" x="392.83709716796875" y="759.8611450195312"></rect><rect width="39.78371006591931" height="1414.213562373095" x="471.4045104980469" y="455.8101501464844"></rect><rect width="39.78371006591931" height="1414.213562373095" x="549.971923828125" y="993.5604858398438"></rect><rect width="39.78371006591931" height="1414.213562373095" x="628.5393676757812" y="874.2671508789062"></rect></g><g fill="#ffffff" transform="matrix(0.7071067811865476,0.7071067811865476,-0.7071067811865476,0.7071067811865476,0,0)"><rect width="39.78371006591931" height="1414.213562373095" x="39.28371047973633" y="865.2750854492188"></rect><rect width="39.78371006591931" height="1414.213562373095" x="117.85112762451172" y="436.5869140625"></rect><rect width="39.78371006591931" height="1414.213562373095" x="196.41854858398438" y="945.8713989257812"></rect><rect width="39.78371006591931" height="1414.213562373095" x="274.9859619140625" y="742.5656127929688"></rect><rect width="39.78371006591931" height="1414.213562373095" x="353.55340576171875" y="1059.1995239257812"></rect><rect width="39.78371006591931" height="1414.213562373095" x="432.1208190917969" y="363.53515625"></rect><rect width="39.78371006591931" height="1414.213562373095" x="510.688232421875" y="409.0705261230469"></rect><rect width="39.78371006591931" height="1414.213562373095" x="589.2556762695312" y="834.1388549804688"></rect><rect width="39.78371006591931" height="1414.213562373095" x="667.8230590820312" y="1024.93701171875"></rect></g></svg>